<?xml version="1.0" encoding="iso-8859-1"?>
<!-- Generator: Adobe Illustrator 19.0.0, SVG Export Plug-In . SVG Version: 6.00 Build 0)  -->
<svg version="1.1" id="Capa_1" xmlns="http://www.w3.org/2000/svg" xmlns:xlink="http://www.w3.org/1999/xlink" x="0px" y="0px"
	 viewBox="0 0 512 512" style="enable-background:new 0 0 512 512;" xml:space="preserve">
<g>
	<g>
		<path d="M280.565,313.255h-89.89c-4.144,0-7.502,3.358-7.502,7.502s3.358,7.502,7.502,7.502h89.89
			c4.143,0,7.502-3.358,7.502-7.502S284.709,313.255,280.565,313.255z"/>
	</g>
</g>
<g>
	<g>
		<path d="M296.617,353.852c-1.416-3.895-5.716-5.902-9.614-4.486l-77.016,28.006c-3.894,1.416-5.901,5.72-4.486,9.614
			c1.416,3.895,5.721,5.9,9.614,4.486l77.016-28.006C296.025,362.05,298.032,357.746,296.617,353.852z"/>
	</g>
</g>
<g>
	<g>
		<path d="M292.131,278.045l-77.016-28.006c-3.897-1.416-8.197,0.595-9.614,4.486c-1.415,3.895,0.593,8.198,4.486,9.614
			c80.856,29.228,77.079,28.459,79.579,28.459C297.922,292.6,299.986,280.903,292.131,278.045z"/>
	</g>
</g>
<g>
	<g>
		<path d="M377.851,257.626l-23.96-27.104c-2.744-3.105-7.485-3.395-10.589-0.651c-3.104,2.744-3.396,7.485-0.651,10.589
			l12.023,13.601c-22.436,11.717-16.428,54.983,9.112,54.983C386.617,309.044,394.621,273.513,377.851,257.626z M363.786,294.04
			c-3.783,0-8.014-5.823-8.014-13.616s4.231-13.615,8.014-13.615c3.782,0,8.013,5.822,8.013,13.615
			C371.799,288.217,367.569,294.04,363.786,294.04z"/>
	</g>
</g>
<g>
	<g>
		<path d="M472.779,349.077c-1.952-13.174-13.469-21.623-13.982-22.254c-1.896-2.011-15.223-13.323-15.493-18.134
			c-0.69-7.683,6.045-71.951-41.459-136.128c-2.468-3.331-7.166-4.03-10.493-1.565c-3.33,2.466-4.03,7.162-1.565,10.493
			c43.434,58.666,37.498,115.742,38.515,127.2c0,11.747,13.684,23.067,24.145,32.667c2.35,2.154,5.07,7.068,5.493,9.919
			c1.64,11.076-8.461,18.763-20.41,17.567c-10.203-1.026-20.237,4.57-24.933,13.923c-4.435,8.831-9.594,17.415-15.336,25.664
			c-20.528-3.073-39.207,0.663-55.541,11.155c-3.485,2.24-4.496,6.88-2.258,10.366c2.247,3.497,6.891,4.489,10.366,2.257
			c10.948-7.032,23.304-10.284,36.837-9.741c-75.822,92.34-195.006,97.35-272.406,22.567c-2.98-2.882-7.729-2.799-10.606,0.183
			c-2.879,2.98-2.798,7.729,0.183,10.606c62.609,60.496,161.106,79.329,246.49,20.415c31.693-21.866,58.569-52.671,75.677-86.74
			c1.925-3.834,5.959-6.131,10.031-5.727C458.86,386.043,475.716,368.924,472.779,349.077z"/>
	</g>
</g>
<g>
	<g>
		<path d="M377.812,145.349c-7.374-7.031-15.156-13.438-23.284-19.212c3.838-21.072,7.078-52.159,3.314-88.579
			c-0.824-7.981-4.758-14.107-10.792-16.81c-5.811-2.602-12.134-1.357-17.316,2.391c-9.476,6.851-32.791,25.607-58.574,60.367
			c-3.892-21.761-9.313-43.281-16.229-64.3c-6.187-18.795-24.325-26.284-39.576-11.055c-27.241,25.921-56.524,67.43-73.125,109.068
			C34.527,181.761,6.261,327.059,80.011,428.416c1.468,2.017,3.754,3.089,6.071,3.089c6.039,0,9.697-6.918,6.06-11.917
			c-64.19-88.217-46.094-214.556,43.042-279.711c-0.061,11.306,10.303,20.594,22.153,18.321
			c11.533-2.209,92.342-17.693,103.676-19.864c9.558-1.831,16.014-10.527,15.02-20.228c-0.321-3.13-0.685-6.256-1.069-9.381
			c42.169,8.013,65.243,27.348,69.171,28.447c8.164,5.664,15.96,12.017,23.323,19.036c2.998,2.859,7.746,2.747,10.606-0.252
			C380.922,152.957,380.809,148.209,377.812,145.349z M258.191,123.598l-60.816,11.652c0.169-3.835,0.398-7.673,0.702-11.48
			c0.329-4.13-2.753-7.745-6.882-8.074c-4.138-0.316-7.745,2.753-8.074,6.882c-0.411,5.163-0.705,10.379-0.879,15.571
			c-29.661,5.683-29.175,6.366-31.138,4.146c-0.508-0.573,2.77-13.616,3.799-16.286c9.971-25.824,24.407-50.62,41.558-73.328
			c-3.091,9.937-6.098,21.451-8.566,34.388c-0.776,4.07,1.894,7.999,5.964,8.774c4.057,0.781,7.997-1.893,8.773-5.964
			c7.897-41.412,21.83-67.711,24.255-72.074c5.85-5.978,11.221-1.712,13.791,6.093c10.228,31.082,17.102,63.292,20.43,95.739
			C261.303,121.538,260.049,123.242,258.191,123.598z M282.112,93.929c24.956-34.024,47.387-52.103,56.412-58.628
			c1.816-1.312,2.563-1.209,3.393,0.269c-8.607,7.631-28.199,28.418-36.221,65.113C297.994,97.946,290.123,95.688,282.112,93.929z
			 M340.829,117.21c-6.796-4.049-13.796-7.679-20.973-10.872c4.954-24.791,15.93-41.684,24.261-51.472
			C345.356,79.485,343.423,100.882,340.829,117.21z"/>
	</g>
</g>
<g>
</g>
<g>
</g>
<g>
</g>
<g>
</g>
<g>
</g>
<g>
</g>
<g>
</g>
<g>
</g>
<g>
</g>
<g>
</g>
<g>
</g>
<g>
</g>
<g>
</g>
<g>
</g>
<g>
</g>
</svg>
